<svg width="12" height="12" viewBox="0 0 12 12" fill="none" xmlns="http://www.w3.org/2000/svg">
<path fill-rule="evenodd" clip-rule="evenodd" d="M0 6C0 2.69147 2.69034 0 5.99749 0C9.30465 0 11.995 2.69147 11.995 6C11.995 9.30854 9.30465 12 5.99749 12C2.69034 12 0 9.30854 0 6ZM5.78852 7.97849L9.0372 4.72855C9.23258 4.53299 9.23258 4.21705 9.0372 4.02158C8.84172 3.82602 8.52591 3.82602 8.33052 4.02158L5.43519 6.91804L4.16423 5.64655C3.96876 5.45099 3.65294 5.45099 3.45756 5.64655C3.26208 5.84202 3.26208 6.15806 3.45756 6.35352L5.08185 7.97849C5.17931 8.076 5.30725 8.12507 5.43519 8.12507C5.56312 8.12507 5.69106 8.076 5.78852 7.97849Z" fill="#174571"/>
</svg>
