<svg width="22" height="25" viewBox="0 0 22 25" fill="none" xmlns="http://www.w3.org/2000/svg">
<path d="M15.6248 10.5479C15.6248 10.0183 15.1955 9.58901 14.6659 9.58901H4.78919C4.25959 9.58901 3.83029 10.0183 3.83029 10.5479C3.83029 11.0775 4.25959 11.5068 4.78919 11.5068H14.6659C15.1955 11.5068 15.6248 11.0775 15.6248 10.5479Z" fill="white"/>
<path d="M4.78919 13.4246C4.25959 13.4246 3.83029 13.8539 3.83029 14.3835C3.83029 14.9131 4.25959 15.3424 4.78919 15.3424H10.7876C11.3172 15.3424 11.7465 14.9131 11.7465 14.3835C11.7465 13.8539 11.3172 13.4246 10.7876 13.4246H4.78919Z" fill="white"/>
<path d="M7.04259 22.63H3.8356C2.77812 22.63 1.9178 21.7697 1.9178 20.7122V3.8356C1.9178 2.77812 2.77812 1.9178 3.8356 1.9178H15.6247C16.6822 1.9178 17.5425 2.77812 17.5425 3.8356V9.73283C17.5425 10.2624 17.9718 10.6917 18.5014 10.6917C19.031 10.6917 19.4603 10.2624 19.4603 9.73283V3.8356C19.4603 1.72065 17.7397 0 15.6247 0H3.8356C1.72065 0 0 1.72065 0 3.8356V20.7122C0 22.8272 1.72065 24.5478 3.8356 24.5478H7.04259C7.57219 24.5478 8.00149 24.1185 8.00149 23.5889C8.00149 23.0593 7.57219 22.63 7.04259 22.63Z" fill="white"/>
<path d="M21.1588 13.8835C20.0372 12.7619 18.2122 12.7619 17.0913 13.8828L11.8268 19.1356C11.715 19.2472 11.6325 19.3846 11.5866 19.5357L10.4401 23.3102C10.3385 23.6448 10.427 24.0082 10.6712 24.2585C10.8542 24.4461 11.1028 24.5478 11.3577 24.5478C11.443 24.5478 11.5291 24.5364 11.6136 24.513L15.484 23.4409C15.6432 23.3968 15.7884 23.3122 15.9054 23.1955L21.1589 17.9519C22.2805 16.8302 22.2805 15.0053 21.1588 13.8835ZM14.729 21.66L12.7819 22.1994L13.3517 20.3234L16.9039 16.779L18.2603 18.1354L14.729 21.66ZM19.8035 16.5952L19.6177 16.7806L18.2616 15.4245L18.4467 15.2397C18.8206 14.8658 19.4289 14.8658 19.8028 15.2397C20.1767 15.6136 20.1767 16.2219 19.8035 16.5952Z" fill="white"/>
<path d="M14.6659 5.7534H4.78919C4.25959 5.7534 3.83029 6.1827 3.83029 6.7123C3.83029 7.2419 4.25959 7.6712 4.78919 7.6712H14.6659C15.1955 7.6712 15.6248 7.2419 15.6248 6.7123C15.6248 6.1827 15.1955 5.7534 14.6659 5.7534Z" fill="white"/>
</svg>
